<svg xmlns="http://www.w3.org/2000/svg" viewBox="0 0 860 640" role="img" aria-label="Galon air alkali">
  <defs>
    <linearGradient id="glass" x1="0" x2="1" y1="0" y2="1">
      <stop offset="0" stop-color="#fbfff9" stop-opacity=".96"/>
      <stop offset=".48" stop-color="#cdf6de" stop-opacity=".78"/>
      <stop offset="1" stop-color="#71d096" stop-opacity=".68"/>
    </linearGradient>
    <linearGradient id="cap" x1="0" x2="1">
      <stop offset="0" stop-color="#2c9b59"/>
      <stop offset="1" stop-color="#6ccf89"/>
    </linearGradient>
    <filter id="soft" x="-20%" y="-20%" width="140%" height="140%">
      <feGaussianBlur stdDeviation="18"/>
    </filter>
  </defs>
  <ellipse cx="430" cy="574" rx="240" ry="42" fill="#316f4b" opacity=".14" filter="url(#soft)"/>
  <path d="M352 84h156l18 88c7 35 29 61 56 83 53 43 82 114 82 196 0 102-41 159-82 184H278c-43-27-82-88-82-184 0-82 29-153 82-196 27-22 49-48 56-83l18-88Z" fill="url(#glass)" stroke="#ffffff" stroke-width="10"/>
  <path d="M362 51h136c19 0 34 15 34 34v22H328V85c0-19 15-34 34-34Z" fill="url(#cap)"/>
  <path d="M334 107h192v64H334z" fill="#ffffff" opacity=".5"/>
  <path d="M288 336c53-42 107-48 160-19 50 28 91 17 131-15 17 34 26 71 26 111 0 57-19 103-45 130H301c-26-29-43-76-43-130 0-30 11-57 30-77Z" fill="#56bf79" opacity=".24"/>
  <rect x="292" y="363" width="276" height="112" rx="8" fill="#ffffff" opacity=".76"/>
  <text x="430" y="407" text-anchor="middle" font-family="Arial, sans-serif" font-size="34" font-weight="800" fill="#287044">BINTANG</text>
  <text x="430" y="443" text-anchor="middle" font-family="Arial, sans-serif" font-size="20" font-weight="700" fill="#3b8c54">ALKALI 19L</text>
  <path d="M282 184c-64 45-99 114-105 207" fill="none" stroke="#fff" stroke-width="18" stroke-linecap="round" opacity=".54"/>
  <path d="M499 77c38 73 26 115 87 161" fill="none" stroke="#fff" stroke-width="14" stroke-linecap="round" opacity=".45"/>
</svg>
